# xmcd
#
# Track frame offsets: 
#        150
#        26487
#        57960
#        110665
#        145275
#        183538
#        221915
#        268949
#        290754
#
# Disc length: 4355 seconds
#
# Revision: 2
# Processed by: cddbd v1.5.2PL0 Copyright (c) Steve Scherf et al.
# Submitted via: ExactAudioCopy v0.99pb5
#
DISCID=98110109
DTITLE=Philharmonia Orchestra (Muti) - Rossini Ouvertures - CD 1
DYEAR=2002
DGENRE=Classical
TTITLE0=La Scala die seta
TTITLE1=Il barbiere di Siviglia
TTITLE2=Semiramide
TTITLE3=Le voyage à Reims
TTITLE4=Le siège de Corinthe
TTITLE5=La Cenerentola
TTITLE6=La gazza ladra
TTITLE7=Il signor Bruschino
TTITLE8=L'Italiana in Algeri
EXTD=
EXTT0=
EXTT1=
EXTT2=
EXTT3=
EXTT4=
EXTT5=
EXTT6=
EXTT7=
EXTT8=
PLAYORDER=
